<?xml version="1.0" standalone="no"?>
<!DOCTYPE svg PUBLIC "-//W3C//DTD SVG 20010904//EN"
 "http://www.w3.org/TR/2001/REC-SVG-20010904/DTD/svg10.dtd">
<svg version="1.0" xmlns="http://www.w3.org/2000/svg"
 width="345.000000pt" height="438.000000pt" viewBox="0 0 345.000000 438.000000"
 preserveAspectRatio="xMidYMid meet">

<g transform="translate(0.000000,438.000000) scale(0.100000,-0.100000)"
fill="#000000" stroke="none">
<path d="M1143 4085 c-147 -26 -248 -97 -305 -213 -27 -54 -33 -79 -36 -154
-7 -135 32 -212 137 -280 73 -46 85 -41 131 55 95 194 245 337 458 434 l75 34
-29 30 c-42 44 -137 85 -227 98 -94 13 -111 13 -204 -4z"/>
<path d="M2585 4075 c-108 -26 -215 -89 -175 -103 8 -3 57 -27 110 -53 169
-85 317 -221 401 -369 58 -103 50 -99 101 -49 24 25 58 72 74 105 24 49 30 74
32 150 3 78 1 97 -19 140 -28 59 -89 123 -143 148 -92 43 -273 58 -381 31z"/>
<path d="M1560 3689 c-56 -17 -90 -49 -223 -208 -133 -159 -149 -190 -127
-256 15 -44 69 -91 122 -106 42 -11 44 -10 223 81 99 51 188 100 199 109 61
54 81 187 39 267 -48 90 -146 138 -233 113z m70 -198 c65 -34 99 -111 64 -145
-20 -20 -68 -21 -85 0 -21 26 -68 46 -92 38 -12 -4 -37 -20 -55 -35 -54 -47
-122 -32 -122 26 0 30 51 90 99 115 49 26 144 26 191 1z"/>
<path d="M2266 3688 c-98 -27 -171 -157 -147 -263 21 -93 41 -112 233 -212 95
-49 182 -93 193 -96 60 -19 155 43 177 115 21 72 5 99 -208 342 -38 44 -83 88
-100 97 -39 23 -101 30 -148 17z m223 -197 c77 -40 124 -124 89 -159 -22 -22
-75 -14 -110 16 -18 16 -41 32 -51 35 -21 8 -76 -13 -96 -36 -18 -23 -64 -21
-86 3 -31 35 1 107 64 140 49 26 140 26 190 1z"/>
<path d="M1894 3315 c-20 -20 -23 -29 -14 -44 14 -27 42 -34 101 -26 53 7 75
30 64 64 -12 38 -115 42 -151 6z"/>
<path d="M350 2928 c0 -2 -9 -52 -20 -113 -28 -157 -33 -145 53 -145 160 0
242 -38 266 -125 17 -64 12 -124 -28 -315 -18 -88 -51 -247 -80 -385 -152
-723 -153 -729 -181 -938 -14 -110 -12 -263 5 -326 38 -143 124 -249 247 -305
112 -51 165 -61 338 -60 128 0 169 4 235 22 160 44 281 106 394 200 85 71 111
98 111 115 0 18 -99 159 -109 155 -4 -2 -50 -25 -102 -51 -89 -44 -101 -48
-173 -48 -68 0 -81 3 -112 26 -41 32 -58 63 -73 135 -16 80 11 308 68 565 5
22 16 76 25 120 9 44 21 98 26 120 11 43 94 435 140 661 17 78 32 148 36 157
4 10 -10 25 -43 48 -164 112 -263 241 -351 462 l-12 27 -330 0 c-181 0 -330
-1 -330 -2z"/>
<path d="M1160 2916 c0 -7 19 -51 42 -97 32 -65 61 -104 128 -171 48 -49 94
-88 103 -88 10 0 19 11 22 28 4 15 10 45 15 67 5 22 14 65 20 95 7 30 16 71
21 91 5 20 9 48 9 63 l0 26 -180 0 c-147 0 -180 -3 -180 -14z"/>
</g>
</svg>
