<?xml version="1.0" standalone="no"?>
<!DOCTYPE svg PUBLIC "-//W3C//DTD SVG 20010904//EN"
 "http://www.w3.org/TR/2001/REC-SVG-20010904/DTD/svg10.dtd">
<svg version="1.0" xmlns="http://www.w3.org/2000/svg"
 width="459.000000pt" height="591.000000pt" viewBox="0 0 459.000000 591.000000"
 preserveAspectRatio="xMidYMid meet">

<g transform="translate(0.000000,591.000000) scale(0.100000,-0.100000)"
fill="#000000" stroke="none">
<path d="M1625 5614 c-401 -30 -736 -56 -744 -59 -21 -8 -11 -199 62 -1285 35
-520 62 -951 59 -958 -3 -8 -12 -10 -21 -7 -9 4 -50 13 -91 22 -94 18 -203 11
-303 -20 -63 -21 -72 -26 -69 -46 1 -12 31 -86 67 -163 36 -78 65 -145 65
-150 0 -21 -34 -3 -87 46 -40 37 -72 79 -102 137 -24 46 -46 86 -47 88 -8 9
-101 -78 -142 -133 -92 -124 -134 -255 -134 -411 1 -113 25 -221 68 -307 54
-106 224 -253 352 -303 23 -10 42 -20 42 -23 0 -3 -17 -26 -38 -51 -115 -138
-197 -310 -233 -486 -16 -81 -14 -274 5 -360 46 -215 155 -415 303 -555 375
-357 921 -510 1443 -404 191 39 420 136 566 240 239 171 417 438 458 689 l7
40 102 2 c364 6 667 246 757 597 26 102 27 183 3 190 -129 38 -342 59 -506 52
-139 -7 -161 -1 -95 24 18 7 47 18 63 25 64 28 436 105 507 105 l27 0 -18 53
c-75 217 -225 383 -436 484 l-75 35 124 162 c67 88 300 393 516 676 216 283
398 527 403 541 6 14 8 33 5 41 -6 14 -793 581 -820 590 -9 3 3 43 45 151 33
81 57 152 55 158 -2 6 -69 28 -148 48 -380 98 -1106 295 -1117 304 -9 6 -13
43 -13 116 0 140 -8 155 -80 158 -30 0 -383 -23 -785 -53z m807 2 c11 -10 17
-91 26 -352 7 -187 15 -370 19 -409 l6 -70 -38 33 c-47 42 -74 52 -136 52
-104 0 -162 -50 -158 -135 3 -50 3 -50 -29 -53 -30 -3 -32 -1 -32 30 -1 45
-22 101 -55 144 -15 19 -25 37 -24 39 2 2 78 11 169 20 190 19 200 21 200 42
0 17 -5 17 -281 -8 l-136 -13 -84 41 c-181 89 -397 98 -563 24 -23 -10 -71
-48 -108 -85 -67 -67 -67 -67 -138 -75 -75 -8 -107 -24 -80 -41 8 -5 22 -8 30
-5 8 2 37 5 65 7 38 2 50 -1 52 -12 1 -8 4 -36 8 -61 3 -27 19 -67 37 -93 17
-26 29 -48 27 -50 -2 -2 -35 -7 -74 -12 -55 -7 -71 -13 -73 -27 -4 -17 3 -18
100 -12 103 7 104 7 153 -22 28 -17 71 -38 97 -48 26 -10 52 -23 56 -29 5 -6
16 -152 25 -325 10 -176 21 -319 27 -325 29 -29 31 14 16 293 -9 155 -16 298
-16 317 l0 35 83 -8 c108 -10 130 -9 205 11 121 31 199 83 261 174 21 29 27
32 76 32 31 0 70 -8 96 -20 24 -11 62 -20 84 -20 49 0 117 30 138 60 15 21 15
19 21 -42 5 -56 47 -1069 46 -1126 0 -21 -3 -22 -34 -16 -46 8 -190 -12 -260
-36 -55 -19 -130 -54 -172 -80 -20 -12 -27 -9 -80 39 -93 83 -273 161 -370
161 l-32 0 -7 -97 c-6 -99 -51 -419 -61 -435 -14 -21 -23 -1 -37 80 -16 86
-26 201 -32 361 -2 45 -5 85 -8 88 -10 10 -133 -28 -204 -62 -39 -20 -97 -56
-128 -81 -31 -25 -57 -45 -59 -43 -1 2 -28 402 -59 889 -32 487 -62 935 -67
995 -18 198 -19 256 -4 262 10 4 1377 108 1476 112 15 0 33 -5 40 -13z m617
-417 c445 -119 655 -177 669 -185 3 -1 -349 -888 -403 -1014 -13 -30 -87 -216
-165 -412 -78 -197 -145 -358 -148 -358 -3 0 -33 27 -68 60 -34 33 -67 60 -72
60 -11 0 -138 -143 -277 -312 -53 -65 -100 -118 -106 -118 -16 0 -10 25 19 71
38 59 113 216 152 314 17 44 38 90 46 103 14 21 13 23 -10 31 -13 6 -39 13
-58 16 -19 4 -39 10 -45 13 -7 5 -23 325 -47 907 -41 1015 -40 965 -25 965 6
0 248 -63 538 -141z m-1354 -200 c72 -13 190 -59 178 -69 -8 -7 -301 -40 -355
-40 -27 0 -28 1 -28 60 l0 60 73 0 c40 0 100 -5 132 -11z m-247 -61 l3 -55
-38 -6 c-21 -3 -73 -9 -117 -13 l-78 -7 16 25 c31 48 165 124 201 114 6 -1 11
-27 13 -58z m537 -89 c20 -23 43 -56 51 -75 15 -37 19 -90 6 -98 -5 -3 -116
-16 -248 -31 -131 -14 -245 -27 -253 -28 -19 -3 -31 53 -34 153 l-2 75 195 21
c265 29 242 31 285 -17z m-531 -25 c3 -9 6 -60 6 -115 l0 -99 -33 0 c-19 0
-59 -5 -91 -11 -56 -12 -57 -11 -86 16 -41 39 -72 109 -68 153 l3 37 105 16
c138 22 157 22 164 3z m924 -8 c46 -24 64 -50 60 -92 -2 -26 -11 -43 -29 -57
-31 -22 -113 -35 -123 -18 -5 7 3 11 22 11 16 0 35 7 42 15 18 22 -9 29 -77
21 -36 -4 -60 -2 -69 5 -31 26 -6 101 40 119 33 14 104 11 134 -4z m2010 -639
c24 -15 45 -34 48 -42 3 -8 -14 -44 -38 -82 -31 -47 -944 -1252 -994 -1312 -2
-2 -34 1 -71 7 -38 6 -95 14 -128 17 l-60 6 -1 69 c-2 94 -19 160 -65 257 -21
45 -39 87 -39 92 0 11 254 652 271 683 7 13 14 14 37 6 57 -22 122 17 122 72
0 39 -31 70 -71 70 -21 0 -30 4 -26 13 3 6 64 161 137 343 l132 331 352 -251
c193 -138 370 -264 394 -279z m-2367 436 c-54 -100 -251 -170 -417 -147 l-69
9 -9 43 c-5 23 -6 46 -2 50 4 4 112 19 239 33 294 34 270 33 258 12z m-557
-59 c8 -21 8 -64 0 -64 -15 0 -124 54 -124 61 0 4 24 10 53 12 28 2 55 4 58 5
4 1 10 -5 13 -14z m1964 -601 c4 -30 -32 -49 -64 -34 -28 12 -30 24 -8 46 23
23 68 16 72 -12z"/>
<path d="M1554 5306 c-40 -18 -74 -62 -74 -97 0 -31 39 -83 79 -103 103 -52
241 -2 241 87 0 91 -144 157 -246 113z m139 -40 c70 -29 85 -82 35 -119 -83
-62 -255 24 -192 95 36 39 99 49 157 24z"/>
<path d="M1132 5188 c-32 -16 -39 -54 -15 -86 10 -15 45 -40 77 -55 49 -24 66
-28 103 -22 50 7 93 42 93 73 0 32 -37 69 -87 86 -53 18 -137 20 -171 4z m186
-55 c38 -28 38 -42 -1 -58 -27 -11 -43 -12 -73 -4 -77 21 -127 67 -91 83 27
12 139 -2 165 -21z"/>
<path d="M1956 5146 c-49 -18 -58 -28 -58 -60 0 -34 18 -55 67 -77 74 -34 173
-16 196 35 32 69 -107 137 -205 102z m129 -46 c57 -22 35 -70 -32 -70 -69 0
-138 48 -102 71 19 12 102 11 134 -1z"/>
<path d="M3014 4942 c-45 -21 -70 -66 -59 -102 9 -28 62 -60 100 -60 40 1 111
34 124 58 45 84 -63 151 -165 104z m114 -38 c31 -21 28 -41 -10 -64 -41 -25
-79 -25 -108 -2 -27 22 -18 49 24 68 41 18 67 17 94 -2z"/>
<path d="M3329 4877 c-47 -32 -59 -69 -32 -105 27 -36 80 -49 134 -33 83 25
113 88 64 136 -33 34 -117 35 -166 2z m141 -32 c18 -22 5 -44 -35 -60 -46 -20
-68 -19 -96 5 l-24 20 28 25 c33 29 106 35 127 10z"/>
<path d="M2733 4770 c-62 -37 -72 -103 -24 -151 68 -68 211 -16 211 76 -1 79
-109 123 -187 75z m127 -40 c27 -27 25 -55 -6 -79 -51 -40 -134 -19 -134 35 0
54 99 85 140 44z"/>
<path d="M3035 4716 c-235 -111 -166 -408 95 -405 76 1 112 12 173 55 76 54
109 163 74 247 -19 44 -87 103 -134 116 -66 19 -153 13 -208 -13z m222 -37
c64 -31 88 -71 88 -145 0 -51 -4 -66 -29 -98 -102 -134 -353 -101 -382 49 -28
149 170 268 323 194z"/>
<path d="M3590 4214 c-53 -23 -80 -53 -80 -89 0 -42 28 -66 84 -72 118 -14
210 54 180 132 -17 42 -117 58 -184 29z m134 -37 c43 -31 -22 -87 -101 -87
-50 0 -78 19 -69 47 13 41 131 69 170 40z"/>
<path d="M3922 4084 c-41 -21 -66 -67 -58 -106 l6 -28 -33 16 c-40 21 -159 30
-212 15 -60 -16 -131 -65 -162 -112 -24 -36 -28 -53 -28 -109 0 -85 29 -133
104 -174 101 -54 222 -44 322 29 85 61 117 181 70 260 -11 20 -21 37 -21 38 0
2 18 1 39 -1 114 -11 191 81 128 154 -30 34 -105 43 -155 18z m116 -40 c29
-20 28 -39 -3 -69 -30 -31 -83 -33 -116 -6 -21 17 -22 22 -11 45 20 44 88 60
130 30z m-217 -117 c66 -35 92 -79 87 -149 -5 -71 -39 -117 -111 -155 -102
-53 -241 -30 -300 48 -63 86 -10 210 113 263 55 24 158 20 211 -7z"/>
</g>
</svg>
