<?xml version="1.0" standalone="no"?>
<!DOCTYPE svg PUBLIC "-//W3C//DTD SVG 20010904//EN"
 "http://www.w3.org/TR/2001/REC-SVG-20010904/DTD/svg10.dtd">
<svg version="1.0" xmlns="http://www.w3.org/2000/svg"
 width="645.000000pt" height="474.000000pt" viewBox="0 0 645.000000 474.000000"
 preserveAspectRatio="xMidYMid meet">

<g transform="translate(0.000000,474.000000) scale(0.100000,-0.100000)"
fill="#000000" stroke="none">
<path d="M3025 4604 c-557 -59 -1082 -309 -1464 -694 -384 -388 -615 -863
-687 -1410 -23 -175 -15 -515 16 -689 27 -154 77 -339 124 -458 20 -49 36 -92
36 -95 0 -3 -62 -8 -138 -11 -170 -8 -234 -23 -367 -87 -151 -72 -271 -191
-348 -345 -63 -127 -63 -329 -1 -462 49 -103 186 -197 357 -247 l88 -25 2067
44 c1137 24 2306 49 2597 55 292 6 573 15 625 20 323 35 485 305 361 602 -67
159 -160 283 -259 346 -110 71 -346 142 -471 142 -54 0 -72 3 -68 13 45 118
104 354 132 532 26 160 31 493 11 655 -36 286 -112 537 -237 790 -131 262
-267 447 -481 655 -354 344 -773 557 -1269 645 -99 18 -171 23 -354 25 -126 2
-248 1 -270 -1z m408 -211 c4 -2 7 -15 7 -29 l0 -24 -132 0 c-73 0 -150 -3
-170 -6 l-38 -7 0 36 0 36 53 4 c58 5 268 -3 280 -10z m-400 -34 c10 -18 16
-33 15 -34 -2 -1 -49 -9 -104 -18 -56 -9 -108 -19 -117 -22 -11 -5 -14 3 -14
34 l0 40 51 10 c28 6 60 12 71 14 57 13 80 7 98 -24z m680 -3 c75 -15 102 -25
102 -36 0 -18 -22 -18 -155 -1 -142 18 -138 17 -132 46 5 29 5 29 185 -9z
m240 -65 c88 -30 280 -111 275 -116 -2 -2 -59 16 -128 40 -69 23 -151 48 -183
55 -44 10 -57 17 -57 32 0 10 1 18 3 18 2 0 42 -13 90 -29z m-1325 -13 c7 -18
13 -35 15 -37 1 -2 -16 -10 -38 -18 -22 -9 -80 -31 -129 -50 l-89 -35 -20 26
c-33 46 -72 26 -41 -21 10 -16 13 -28 7 -30 -6 -2 -61 -32 -122 -67 -116 -67
-123 -67 -136 -15 -6 24 -1 30 52 62 89 54 277 143 383 182 52 19 97 34 100
35 3 0 11 -15 18 -32z m1012 -165 c687 -92 1286 -529 1585 -1156 120 -251 173
-454 195 -745 34 -446 -113 -916 -415 -1321 -128 -172 -331 -370 -494 -480
l-59 -40 -678 -15 c-374 -9 -749 -16 -834 -18 l-155 -2 -24 538 c-13 295 -21
539 -19 541 2 2 40 -3 83 -11 115 -21 407 -29 535 -15 382 44 719 186 938 396
l79 75 104 0 104 0 30 -51 c37 -62 87 -109 157 -146 48 -25 63 -28 153 -28 91
0 105 3 160 30 167 83 268 277 237 456 -38 219 -219 356 -424 319 -156 -27
-287 -156 -329 -323 -9 -36 -16 -47 -31 -47 -15 0 -18 4 -13 18 40 105 48 144
52 257 3 95 0 135 -14 192 l-19 71 29 6 c16 3 56 6 89 6 81 0 125 20 144 66
11 27 13 43 5 65 -9 27 -8 30 29 49 51 26 104 79 132 133 35 64 33 191 -4 269
-52 112 -179 219 -307 259 -75 23 -202 28 -268 10 -92 -25 -191 -119 -214
-204 -15 -55 -7 -173 15 -214 19 -38 15 -41 -22 -14 -97 68 -347 167 -489 193
l-67 12 94 12 c212 27 362 128 421 283 30 80 24 194 -15 270 -53 103 -172 192
-301 226 -75 19 -233 19 -305 0 -85 -22 -175 -72 -230 -125 -110 -107 -145
-266 -87 -393 49 -107 156 -197 282 -236 50 -16 48 -16 -132 -12 -193 3 -316
-7 -472 -39 -52 -11 -97 -18 -99 -15 -3 3 1 5 9 5 29 0 120 50 163 90 125 116
130 294 10 414 -84 83 -231 128 -358 107 -266 -44 -398 -276 -268 -473 66
-100 230 -168 376 -154 l61 6 -81 -29 c-48 -17 -92 -27 -108 -24 -34 7 -81
-13 -100 -42 -8 -12 -48 -41 -89 -63 -137 -76 -320 -232 -382 -325 -14 -22
-24 -24 -131 -31 -158 -9 -194 -29 -194 -111 0 -27 8 -44 29 -66 27 -27 35
-29 101 -29 70 0 72 -1 66 -23 -40 -147 -30 -306 30 -462 4 -9 -20 -14 -88
-18 -106 -6 -144 -19 -164 -58 -23 -46 -17 -78 21 -116 l35 -35 169 3 168 4
69 -59 c113 -97 235 -171 377 -230 35 -14 37 -17 37 -61 0 -47 35 -830 45
-1006 l5 -96 -143 -6 c-163 -6 -171 -4 -307 93 -434 308 -729 765 -829 1285
-142 730 143 1503 724 1965 463 368 1027 523 1615 443z m-1622 -130 c16 -10
29 -22 28 -28 -1 -5 -44 -42 -96 -81 -116 -87 -264 -226 -345 -323 -32 -39
-64 -71 -70 -71 -5 0 -18 7 -29 15 -17 13 -16 17 29 74 25 34 82 98 125 144
75 79 78 81 97 65 11 -10 25 -18 31 -18 15 0 16 46 2 55 -5 3 -10 10 -10 15 0
8 195 170 205 170 3 0 17 -8 33 -17z m1775 -159 c62 -21 134 -85 146 -132 22
-77 -33 -158 -136 -204 -119 -52 -296 -26 -378 57 -73 72 -71 151 7 220 88 80
231 104 361 59z m-1060 -205 c42 -11 92 -53 101 -84 9 -30 -26 -79 -70 -100
-86 -41 -193 -28 -252 31 -41 41 -38 74 9 115 52 45 134 60 212 38z m-1240
-171 c15 -12 13 -19 -29 -78 -25 -36 -68 -103 -96 -150 -60 -102 -53 -94 -74
-82 -11 6 -13 11 -5 16 6 4 11 16 11 27 0 38 141 279 164 279 7 0 20 -6 29
-12z m3150 -204 c124 -61 187 -183 125 -242 -121 -113 -438 59 -386 210 25 70
154 86 261 32z m-1208 -184 c257 -25 482 -98 650 -214 l60 -41 -45 -3 c-211
-15 -1407 -67 -1414 -61 -4 4 -10 54 -13 112 l-6 105 84 26 c230 72 460 97
684 76z m-2204 -111 c-22 -52 -43 -106 -46 -122 -9 -33 -23 -44 -31 -23 -3 9
11 66 32 127 28 82 43 113 58 119 12 4 22 4 24 0 2 -4 -15 -50 -37 -101z
m1239 -159 c0 -41 -4 -62 -13 -66 -8 -3 -51 -4 -97 -2 l-83 3 84 62 c46 35 90
63 97 63 8 0 12 -19 12 -60z m-1332 -107 c-10 -38 -27 -108 -38 -158 -25 -122
-25 -54 0 82 26 136 28 143 44 143 10 0 9 -15 -6 -67z m3210 -153 c48 -127 28
-303 -47 -422 l-31 -48 -87 -1 c-49 0 -396 -11 -773 -23 -377 -12 -688 -20
-692 -16 -8 6 -34 498 -27 504 7 6 1457 74 1548 72 l84 -1 25 -65z m-1864
-107 c3 -54 9 -168 12 -254 l7 -157 -104 -7 c-57 -3 -138 -5 -179 -3 l-75 3
-40 80 c-39 78 -40 81 -40 190 0 112 22 211 49 221 6 2 81 8 166 13 85 4 165
9 176 10 20 1 22 -5 28 -96z m-1407 -30 c-3 -10 -5 -4 -5 12 0 17 2 24 5 18 2
-7 2 -21 0 -30z m3973 -183 c59 -42 84 -135 60 -219 -36 -127 -176 -191 -273
-126 -36 25 -47 48 -27 60 20 13 11 82 -15 114 -25 29 -25 31 -10 68 48 114
178 165 265 103z m-1065 -405 c-141 -90 -365 -169 -570 -200 -149 -23 -402
-20 -550 5 -66 11 -124 25 -129 30 -5 5 -11 45 -14 90 l-5 80 89 1 c49 0 325
9 614 18 289 10 550 19 580 19 l55 1 -70 -44z m-1473 -42 c3 -21 4 -40 2 -42
-6 -6 -94 37 -124 59 l-25 20 71 0 72 0 4 -37z m3210 -709 c104 -33 163 -72
260 -171 86 -89 93 -107 93 -238 0 -69 -4 -88 -30 -140 -48 -96 -50 -96 -292
-105 -114 -5 -365 -11 -557 -15 l-350 -7 88 83 c156 147 321 361 422 547 l39
72 122 0 c104 0 134 -4 205 -26z m-4502 -115 c145 -230 306 -414 519 -592 18
-15 32 -29 30 -31 -2 -2 -247 -9 -545 -15 l-540 -12 -96 31 c-76 24 -106 39
-143 73 -42 38 -47 47 -55 105 -10 75 3 177 30 240 11 24 40 72 64 106 56 79
120 115 277 155 63 16 125 34 139 40 14 5 76 9 139 8 l115 -2 66 -106z"/>
</g>
</svg>
