<?xml version="1.0" standalone="no"?>
<!DOCTYPE svg PUBLIC "-//W3C//DTD SVG 20010904//EN"
 "http://www.w3.org/TR/2001/REC-SVG-20010904/DTD/svg10.dtd">
<svg version="1.0" xmlns="http://www.w3.org/2000/svg"
 width="633.000000pt" height="846.000000pt" viewBox="0 0 633.000000 846.000000"
 preserveAspectRatio="xMidYMid meet">

<g transform="translate(0.000000,846.000000) scale(0.100000,-0.100000)"
fill="#000000" stroke="none">
<path d="M4814 8272 c-44 -43 -187 -193 -319 -333 -131 -140 -281 -297 -333
-349 -98 -99 -129 -136 -119 -147 17 -16 122 85 450 430 l321 339 35 -43 c20
-24 119 -138 220 -254 228 -261 254 -292 249 -304 -8 -23 -402 -442 -426 -453
-15 -7 -27 -20 -27 -29 0 -9 -93 -117 -206 -240 -113 -123 -256 -279 -317
-346 l-111 -122 -198 212 c-109 117 -233 249 -277 294 l-78 82 83 91 c46 50
86 95 87 101 2 5 -6 9 -18 9 -15 0 -53 -29 -106 -82 l-84 -82 0 45 c0 25 6 69
14 99 17 65 12 82 -23 78 -25 -2 -101 29 -101 42 0 3 47 52 104 109 l103 103
31 -16 c39 -20 78 -21 86 -1 4 11 -6 20 -34 31 -31 13 -40 21 -40 40 0 32 -29
44 -43 18 -16 -28 -238 -259 -253 -262 -7 -2 -31 6 -53 17 -50 26 -71 27 -71
2 0 -22 35 -51 61 -51 9 0 47 -14 84 -31 37 -17 76 -28 86 -26 25 7 28 -31 9
-115 -11 -50 -24 -76 -50 -105 -19 -21 -121 -128 -225 -238 -274 -289 -504
-538 -522 -566 -9 -13 -58 -67 -110 -120 -92 -94 -93 -95 -74 -113 20 -18 19
-18 -10 -59 -30 -41 -30 -42 -9 -45 13 -2 32 6 46 19 l24 22 64 -61 c35 -34
69 -62 75 -62 6 0 11 -10 11 -21 0 -14 59 -86 163 -198 289 -313 287 -310 249
-344 -26 -23 -37 -21 -64 12 -35 43 -391 435 -403 443 -5 4 -17 1 -25 -7 -18
-19 -23 -12 191 -242 256 -275 246 -263 225 -275 -9 -5 -20 -18 -24 -28 -4
-10 -151 -173 -327 -361 -176 -189 -438 -471 -583 -626 -158 -170 -270 -283
-281 -283 -11 0 -44 33 -82 83 -35 45 -142 183 -238 307 -96 124 -178 230
-183 237 -6 7 107 144 344 415 194 222 382 438 418 480 36 42 72 77 81 77 21
1 39 21 39 43 0 10 32 54 71 98 64 74 77 100 46 100 -6 0 -36 -24 -65 -52
l-54 -53 7 67 c7 61 5 67 -14 77 -19 11 -21 9 -21 -14 0 -14 -4 -25 -9 -25
-11 0 -101 50 -101 57 0 2 31 43 70 90 38 47 67 89 64 94 -13 21 -36 5 -92
-64 -91 -111 -73 -108 -209 -29 -141 82 -148 85 -163 67 -9 -11 3 -22 62 -55
40 -24 82 -48 93 -55 11 -7 40 -16 64 -20 31 -5 45 -13 49 -27 2 -11 38 -39
83 -64 l79 -46 0 -45 c0 -24 -5 -54 -11 -65 -6 -11 -70 -89 -143 -172 -386
-445 -558 -646 -591 -691 -65 -85 -119 -140 -142 -141 -26 -1 -283 -165 -283
-181 0 -6 20 -49 44 -95 l44 -83 -44 -105 c-25 -58 -48 -108 -52 -112 -14 -14
-71 31 -78 59 -10 47 -14 54 -24 48 -17 -10 -11 -78 10 -113 14 -22 27 -32 45
-32 14 0 25 -5 25 -11 0 -6 -47 -120 -105 -253 -95 -221 -136 -338 -124 -351
5 -4 220 87 759 324 135 60 257 111 271 115 15 3 41 19 58 35 17 16 41 31 53
34 13 3 101 7 195 9 l173 3 61 -68 c42 -46 68 -67 84 -67 22 0 35 -17 35 -47
0 -8 25 -44 56 -78 l56 -64 -41 -148 c-27 -101 -37 -151 -30 -158 18 -17 34
17 69 145 l33 122 41 -41 c23 -23 47 -41 54 -41 35 0 -6 59 -131 190 -99 105
-227 247 -227 254 0 3 29 6 64 6 79 0 101 7 85 26 -8 10 -37 14 -104 14 -79 0
-94 3 -110 20 -23 25 -45 26 -45 0 0 -26 -37 -32 -177 -28 l-112 3 117 125
c64 69 301 323 526 565 225 242 428 459 451 483 l41 43 73 -120 c40 -67 77
-121 82 -121 28 0 14 41 -51 149 l-72 120 21 28 c12 15 36 48 54 73 l33 45 90
-2 c49 -1 101 -2 115 -2 22 -1 41 -20 107 -108 44 -60 86 -119 93 -133 34 -61
80 -90 92 -57 5 15 -20 67 -33 67 -5 0 -48 51 -94 113 l-85 112 57 5 c49 4 57
8 57 25 0 19 -7 20 -95 20 -205 0 -310 5 -310 15 0 6 118 139 263 297 144 157
277 303 295 325 19 21 38 38 43 38 16 0 147 -91 153 -106 3 -8 15 -14 26 -14
33 0 24 35 -17 68 l-37 29 130 41 c71 22 141 43 157 46 30 7 40 46 11 46 -30
0 -303 -92 -315 -106 -9 -12 -16 -10 -40 7 -16 11 -29 26 -29 33 0 7 32 41 70
75 78 70 99 99 80 111 -7 4 -21 5 -33 2 -22 -6 -96 -77 -135 -130 -13 -18 -28
-32 -33 -32 -5 0 -47 26 -95 58 l-86 57 66 3 c64 3 66 4 66 29 l0 26 -80 -5
c-44 -3 -80 -2 -80 1 1 3 63 54 140 113 l139 107 25 -32 c63 -81 124 -137 147
-137 28 0 82 56 508 522 155 169 286 310 291 313 8 5 143 -14 215 -30 12 -2
21 -13 22 -26 2 -27 30 -69 46 -69 6 0 40 -30 75 -67 61 -65 64 -67 78 -48 13
18 13 21 -9 37 -13 10 -50 47 -82 83 -54 62 -56 67 -39 80 13 9 16 17 9 24
-10 10 -196 57 -247 63 -25 3 -12 19 185 236 117 128 226 249 244 270 l32 37
103 1 c57 0 115 4 129 8 28 8 44 -6 124 -101 l27 -33 -61 -37 c-33 -21 -60
-44 -61 -50 0 -24 50 -13 97 21 27 18 53 31 60 29 7 -2 22 -20 33 -39 12 -19
28 -34 35 -34 25 0 23 29 -5 64 -17 22 -26 44 -23 55 4 15 -1 20 -23 23 -19 2
-36 14 -52 38 -13 19 -39 52 -58 72 l-34 37 -152 -6 -153 -5 -215 253 c-242
284 -308 359 -320 359 -4 0 -43 -35 -86 -78z m152 -47 c33 -38 137 -161 232
-272 95 -110 172 -204 172 -207 0 -3 -21 -6 -47 -6 l-48 1 -210 245 c-115 135
-212 250 -214 255 -4 12 39 61 50 57 3 -2 33 -34 65 -73z m424 -533 c0 -5 -8
-16 -19 -26 -16 -14 -20 -15 -30 -2 -7 8 -10 20 -6 26 7 12 55 14 55 2z
m-1451 -1024 c138 -146 251 -271 251 -277 0 -13 -61 -83 -69 -79 -9 4 -150
162 -222 249 -29 36 -120 139 -201 229 -127 140 -146 165 -137 182 7 12 17 17
29 13 10 -3 22 -1 25 6 5 7 18 0 40 -22 18 -19 145 -154 284 -301z m-354 175
c37 -43 79 -82 91 -86 13 -5 24 -17 24 -26 0 -23 38 -75 129 -176 39 -43 71
-83 71 -88 0 -11 -17 -25 -182 -152 l-137 -105 -145 -6 c-80 -4 -150 -10 -157
-15 -6 -4 -9 -14 -6 -23 7 -19 42 -20 226 -6 l124 9 45 -35 c25 -19 51 -34 58
-34 7 0 23 -13 36 -30 12 -16 29 -30 38 -30 9 0 24 -8 33 -18 15 -17 12 -21
-48 -75 -36 -32 -65 -64 -65 -71 0 -14 -448 -508 -466 -513 -15 -5 -549 595
-549 616 0 9 -10 17 -22 19 -13 2 -23 6 -23 8 0 3 138 153 307 332 169 180
360 384 426 455 66 70 121 127 122 127 2 0 33 -35 70 -77z m-1935 -2693 c132
-171 243 -317 246 -324 3 -7 -1 -16 -9 -19 -10 -4 -94 91 -263 295 -137 166
-252 306 -256 313 -8 14 19 58 32 50 4 -3 117 -145 250 -315z m-364 242 c-8
-20 -26 -64 -40 -97 l-27 -59 -29 51 c-17 29 -30 56 -30 61 0 13 122 92 131
86 5 -2 2 -21 -5 -42z m205 -199 c85 -103 196 -237 247 -297 51 -60 89 -113
85 -117 -12 -10 -661 -289 -673 -289 -17 0 -149 103 -149 117 -1 7 69 176 155
375 158 366 172 398 178 398 2 0 73 -84 157 -187z"/>
<path d="M5953 7712 c-72 -37 -94 -59 -71 -73 14 -9 96 31 122 60 11 12 25 21
33 21 7 0 13 7 13 15 0 22 -17 18 -97 -23z"/>
<path d="M4014 7417 c-38 -22 -164 -140 -164 -153 0 -32 40 -7 141 85 69 63
82 103 23 68z"/>
<path d="M5470 7114 c-25 -7 -55 -14 -66 -14 -29 0 -114 -38 -114 -51 0 -20
30 -20 98 0 38 12 81 21 94 21 31 0 74 32 64 48 -9 15 -19 14 -76 -4z"/>
<path d="M3585 5042 c-6 -4 -32 -30 -58 -58 -32 -35 -45 -57 -41 -68 9 -24 31
-20 51 10 10 14 30 41 46 59 35 42 37 82 2 57z"/>
<path d="M3401 4721 c-12 -8 -8 -20 21 -68 19 -32 411 -681 872 -1443 461
-761 840 -1390 843 -1397 3 -7 0 -13 -6 -13 -5 0 -632 -385 -1392 -856 -760
-471 -1389 -857 -1397 -858 -22 -1 -2173 3615 -2160 3631 13 16 242 163 254
163 5 0 22 -23 37 -51 28 -49 29 -51 12 -86 -22 -45 -15 -135 12 -165 68 -75
222 -59 328 34 68 60 105 130 105 199 0 103 -60 155 -166 143 -51 -5 -52 -5
-73 31 -11 20 -21 40 -21 45 0 8 219 156 246 167 7 2 31 -23 54 -57 39 -58 67
-73 64 -36 -3 26 -85 146 -100 146 -26 0 -289 -179 -300 -204 -10 -22 -8 -32
17 -71 16 -25 29 -54 29 -64 0 -27 48 -38 64 -15 9 11 27 17 56 17 35 0 48 -6
67 -27 29 -34 31 -101 3 -155 -26 -53 -111 -126 -167 -145 -116 -40 -191 -5
-201 93 -4 44 -1 55 18 76 20 22 21 27 10 54 -23 56 -69 121 -86 121 -17 0
-313 -186 -326 -205 -4 -5 -1 -16 7 -25 7 -8 486 -809 1063 -1780 1126 -1893
1118 -1880 1130 -1892 5 -5 94 45 198 109 526 328 2627 1630 2649 1641 14 8
25 20 23 27 -4 17 -1761 2924 -1768 2924 -3 1 -11 -3 -19 -8z"/>
<path d="M2700 3770 c0 -5 7 -10 15 -10 8 0 15 5 15 10 0 6 -7 10 -15 10 -8 0
-15 -4 -15 -10z"/>
<path d="M2623 3734 c-40 -24 -53 -46 -35 -58 13 -8 114 54 109 67 -6 20 -30
17 -74 -9z"/>
</g>
</svg>
