<?xml version="1.0" standalone="no"?>
<!DOCTYPE svg PUBLIC "-//W3C//DTD SVG 20010904//EN"
 "http://www.w3.org/TR/2001/REC-SVG-20010904/DTD/svg10.dtd">
<svg version="1.0" xmlns="http://www.w3.org/2000/svg"
 width="411.000000pt" height="324.000000pt" viewBox="0 0 411.000000 324.000000"
 preserveAspectRatio="xMidYMid meet">

<g transform="translate(0.000000,324.000000) scale(0.100000,-0.100000)"
fill="#000000" stroke="none">
<path d="M513 3145 c-12 -8 -63 -84 -114 -167 -51 -84 -119 -195 -152 -246
-51 -80 -58 -97 -54 -130 7 -60 262 -612 297 -644 41 -38 89 -38 130 -1 52 47
46 81 -54 300 -47 105 -86 192 -86 194 0 7 1653 1 2120 -8 l445 -8 116 -57
c439 -215 690 -634 647 -1078 -24 -254 -146 -495 -342 -677 -68 -63 -202 -163
-220 -163 -3 0 -6 18 -6 41 0 22 -5 83 -11 134 l-11 93 55 67 c108 130 157
274 157 455 0 202 -65 366 -200 500 -116 117 -237 170 -385 170 -168 0 -318
-78 -431 -223 l-29 -38 -95 24 c-240 62 -518 54 -739 -21 l-54 -18 -68 70
c-75 80 -163 137 -259 167 -86 28 -240 30 -325 5 -254 -75 -433 -300 -452
-570 -15 -214 92 -446 256 -557 l51 -34 -7 -55 c-5 -30 -8 -124 -8 -208 l0
-152 -163 0 c-101 0 -172 -4 -185 -11 -57 -29 -75 -103 -36 -152 32 -42 74
-47 299 -38 113 4 259 5 325 2 66 -2 525 -5 1020 -5 961 0 957 0 1119 50 225
71 407 182 577 353 205 206 317 419 365 695 23 131 14 346 -20 482 -94 376
-358 696 -718 869 -197 95 -394 120 -824 104 -137 -5 -402 -7 -589 -5 -187 2
-577 5 -867 5 -339 1 -528 5 -528 11 0 5 47 87 105 182 120 198 128 227 76
279 -34 33 -91 40 -128 14z m1625 -1641 c287 -42 494 -169 699 -426 105 -132
130 -180 170 -323 24 -86 28 -117 27 -225 0 -69 -3 -137 -7 -151 -7 -28 -35
-40 -138 -59 -53 -10 -1977 -16 -1987 -6 -2 3 -9 68 -14 145 -10 136 -9 143
15 223 14 46 33 110 43 143 35 126 150 294 290 422 76 71 109 93 229 152 151
75 179 85 313 105 119 19 234 19 360 0z"/>
<path d="M1423 1089 c-99 -52 -168 -103 -266 -198 -90 -87 -109 -117 -109
-175 0 -53 13 -85 48 -118 66 -62 129 -63 301 -4 273 94 302 107 344 153 57
60 76 132 56 209 -28 107 -117 174 -233 174 -54 0 -74 -6 -141 -41z m150 -122
c88 -67 119 -211 51 -237 -36 -14 -62 3 -86 58 -41 94 -69 104 -120 41 -75
-94 -92 -104 -122 -73 -23 22 -20 78 8 132 42 83 93 115 178 109 42 -2 65 -10
91 -30z"/>
<path d="M2165 1111 c-181 -84 -179 -327 3 -421 13 -6 108 -41 210 -76 125
-43 201 -64 232 -64 68 0 129 35 158 90 46 91 21 151 -110 270 -97 88 -193
155 -280 195 -66 31 -154 33 -213 6z m273 -125 c97 -51 155 -213 86 -240 -29
-11 -50 3 -88 59 -60 90 -103 85 -141 -18 -21 -58 -54 -77 -91 -52 -66 43 -24
183 72 242 45 27 120 31 162 9z"/>
<path d="M1853 764 c-7 -3 -13 -18 -13 -33 0 -21 8 -31 35 -44 19 -9 35 -21
35 -26 0 -5 -23 -24 -51 -42 -29 -18 -47 -35 -41 -37 13 -4 64 22 81 42 11 13
18 11 53 -15 41 -29 68 -37 68 -20 0 5 -13 14 -29 21 -16 6 -38 21 -48 32 -17
20 -17 21 1 32 11 6 28 19 38 29 17 17 18 21 5 40 -11 18 -25 22 -68 24 -30 1
-60 -1 -66 -3z"/>
</g>
</svg>
