<?xml version="1.0" standalone="no"?>
<!DOCTYPE svg PUBLIC "-//W3C//DTD SVG 20010904//EN"
 "http://www.w3.org/TR/2001/REC-SVG-20010904/DTD/svg10.dtd">
<svg version="1.0" xmlns="http://www.w3.org/2000/svg"
 width="426.000000pt" height="449.000000pt" viewBox="0 0 426.000000 449.000000"
 preserveAspectRatio="xMidYMid meet">

<g transform="translate(0.000000,449.000000) scale(0.100000,-0.100000)"
fill="#000000" stroke="none">
<path d="M1687 4374 c-1 -1 -36 -5 -77 -8 -113 -9 -310 -49 -375 -76 -11 -4
-49 -18 -85 -31 -217 -75 -469 -244 -647 -433 -180 -192 -334 -454 -399 -681
-63 -215 -77 -308 -78 -510 -2 -377 97 -717 295 -1012 279 -414 784 -737 1254
-802 108 -15 158 -19 233 -20 59 -1 63 -3 73 -28 34 -93 88 -181 150 -246 l68
-72 27 27 28 28 -50 52 c-28 29 -60 67 -71 83 -21 31 -83 148 -83 157 0 3 10
6 23 6 41 0 252 40 296 56 24 9 51 16 60 16 9 0 33 9 54 20 20 11 43 20 50 20
7 0 41 13 75 30 34 16 64 30 66 30 10 0 142 83 226 142 108 75 170 133 289
268 100 114 169 218 242 365 30 61 55 112 56 113 1 2 39 12 85 22 130 30 246
74 336 130 60 37 23 39 -54 3 -72 -33 -206 -72 -301 -88 l-41 -6 24 78 c52
167 75 307 81 503 6 209 -8 347 -53 530 l-27 108 23 29 22 28 -35 3 c-31 3
-36 8 -52 50 -31 82 -111 234 -172 327 -292 443 -758 726 -1288 781 -47 5
-244 11 -248 8z m43 -64 c0 -5 -23 -10 -51 -10 -31 0 -48 4 -44 10 3 6 26 10
51 10 24 0 44 -4 44 -10z m117 3 c-8 -7 -77 -6 -85 2 -3 3 16 5 43 5 27 0 45
-3 42 -7z m68 -3 c3 -5 -1 -10 -10 -10 -9 0 -13 5 -10 10 3 6 8 10 10 10 2 0
7 -4 10 -10z m-315 -10 c0 -5 -8 -10 -17 -11 -19 -1 -32 -3 -81 -14 -17 -3
-33 -2 -36 4 -4 6 3 13 16 15 13 3 32 7 43 9 38 9 75 7 75 -3z m537 -20 c14
-9 11 -9 -17 -4 -19 4 -53 11 -75 15 -34 7 -32 8 17 4 31 -2 65 -8 75 -15z
m-708 -15 c-36 -19 -86 -28 -93 -16 -6 9 30 24 79 34 32 6 40 -5 14 -18z m611
-31 c115 -15 248 -48 359 -89 98 -36 353 -176 391 -215 3 -3 30 -24 60 -47
167 -127 364 -383 464 -605 39 -85 41 -79 -34 -93 -68 -13 -220 -58 -220 -66
0 -4 -3 -14 -6 -22 -4 -12 18 -9 108 13 62 15 134 30 160 34 l46 7 21 -68 c83
-273 98 -513 49 -793 -23 -136 -83 -320 -139 -433 -52 -102 -158 -265 -223
-342 -28 -33 -60 -70 -71 -83 -32 -38 -186 -173 -255 -222 -140 -101 -344
-198 -526 -250 -224 -64 -533 -80 -749 -39 -489 93 -834 339 -1098 784 -36 61
-79 151 -97 200 -18 50 -41 111 -51 136 -50 125 -82 494 -60 689 15 130 51
291 86 390 35 96 110 256 138 295 13 16 28 43 35 59 35 80 237 309 362 411
119 96 296 202 404 241 231 83 408 120 601 127 83 2 85 2 245 -19z m-730 3 c0
-13 -60 -37 -94 -37 -28 0 -17 17 22 33 47 19 72 21 72 4z m-127 -40 c5 -13
-98 -67 -135 -70 -10 -1 -18 -5 -18 -9 0 -4 -20 -19 -45 -34 -42 -24 -75 -27
-75 -6 0 15 221 125 261 131 4 1 9 -5 12 -12z m-283 -144 c-1 -21 -86 -87
-100 -78 -21 13 -8 33 38 63 56 36 62 37 62 15z m-165 -141 c-31 -28 -39 -31
-52 -20 -14 11 -11 16 22 45 31 27 41 31 53 21 12 -10 8 -17 -23 -46z m-94
-86 c-13 -12 -25 -16 -41 -11 l-22 7 28 29 c25 26 28 27 40 11 11 -14 10 -20
-5 -36z m-67 -43 c4 -10 -3 -26 -21 -45 -30 -31 -32 -32 -53 -18 -12 8 -9 15
20 45 38 40 45 42 54 18z m-89 -102 c2 -43 -33 -82 -62 -71 -23 9 -23 10 14
59 21 28 39 48 42 46 2 -3 5 -18 6 -34z m-85 -135 c0 -24 -25 -47 -43 -40 -21
8 -22 23 -1 52 13 18 19 21 30 11 8 -6 14 -17 14 -23z m-70 -86 c13 -8 11 -17
-12 -63 -22 -45 -32 -55 -56 -59 l-30 -4 34 68 c36 71 39 74 64 58z m-88 -227
c-12 -25 -23 -37 -35 -35 -19 3 -22 -10 -7 -38 16 -30 -7 -80 -36 -80 -13 0
-24 4 -24 9 0 13 44 140 65 188 l18 42 19 -24 c18 -23 18 -25 0 -62z m-72
-218 c0 -5 -5 -26 -10 -45 -8 -28 -15 -36 -36 -38 -20 -1 -24 2 -20 16 2 9 8
33 11 52 4 19 9 38 12 42 5 10 43 -14 43 -27z m-38 -186 c-5 -42 -7 -45 -32
-52 -17 -4 -20 0 -20 26 0 58 9 77 33 68 18 -7 21 -15 19 -42z m-32 -99 c32
-17 13 -109 -22 -110 -5 0 -8 27 -8 60 0 64 1 66 30 50z m10 -214 c0 -41 -19
-74 -33 -59 -4 3 -7 28 -7 55 0 41 3 48 20 48 17 0 20 -7 20 -44z m11 -157 c4
-29 1 -39 -13 -48 -16 -10 -18 -8 -18 16 0 16 -3 39 -7 52 -5 19 -2 22 13 19
13 -2 21 -15 25 -39z m22 -146 c11 -68 -16 -69 -28 0 -6 29 -4 37 8 37 9 0 17
-14 20 -37z m33 -136 c7 -20 9 -39 4 -42 -10 -6 -24 18 -34 58 -10 43 14 29
30 -16z m42 -132 c14 -31 15 -48 3 -41 -12 8 -32 66 -22 66 4 0 13 -11 19 -25z
m52 -130 c0 -5 -5 -3 -10 5 -5 8 -10 20 -10 25 0 6 5 3 10 -5 5 -8 10 -19 10
-25z"/>
<path d="M1628 4050 c-121 -21 -204 -64 -233 -120 -34 -66 -10 -121 73 -162
41 -20 61 -23 162 -22 173 1 260 39 302 132 19 42 19 44 1 80 -35 71 -178 115
-305 92z"/>
<path d="M2161 3917 c-66 -33 -75 -97 -23 -159 40 -48 185 -113 282 -127 98
-15 128 -9 166 30 32 34 36 84 9 125 -24 37 -129 101 -203 124 -73 23 -194 26
-231 7z"/>
<path d="M1830 3733 c-14 -2 -50 -11 -80 -18 -30 -8 -98 -19 -150 -25 -52 -6
-141 -22 -198 -36 -93 -23 -108 -24 -157 -13 -65 14 -174 0 -234 -31 -95 -48
-130 -139 -73 -192 56 -53 89 -63 200 -62 100 1 102 1 102 -22 0 -12 -4 -25
-9 -29 -6 -3 -166 -21 -358 -40 -192 -18 -360 -38 -375 -44 -66 -25 -82 -116
-29 -163 40 -36 41 -36 443 3 180 18 330 31 332 28 5 -5 28 -360 23 -365 -1
-2 -129 -17 -282 -35 -183 -20 -292 -37 -315 -47 -76 -37 -73 -145 5 -178 33
-13 59 -12 315 17 154 18 282 30 285 27 3 -3 10 -103 15 -224 25 -540 42 -831
51 -861 28 -89 145 -99 184 -16 16 33 15 58 -5 385 -11 193 -20 352 -18 353 2
2 26 -1 53 -5 85 -15 335 -11 431 5 328 57 604 233 720 460 22 41 44 75 49 75
58 2 220 31 239 43 62 41 51 144 -20 173 -28 12 -51 13 -110 6 -41 -4 -77 -6
-79 -3 -3 2 -5 22 -5 43 0 37 3 41 40 55 37 15 49 31 34 45 -3 4 -21 0 -39 -8
-19 -8 -36 -14 -38 -14 -3 0 -10 21 -16 46 -7 25 -24 73 -40 105 -16 33 -26
61 -22 63 3 2 42 7 86 11 44 4 89 12 100 17 53 27 72 100 39 147 -33 47 -64
51 -241 34 l-161 -16 -38 30 c-22 16 -66 47 -99 68 -33 21 -78 54 -100 75 -78
71 -161 111 -260 126 -88 14 -145 16 -195 7z m649 -562 c37 -46 76 -129 89
-188 9 -41 9 -43 -27 -69 -20 -15 -41 -33 -47 -41 -8 -9 -69 -20 -180 -33 -93
-10 -189 -22 -214 -24 l-45 -6 80 42 c135 71 237 188 275 316 7 23 19 42 26
42 7 0 26 -18 43 -39z m-864 -327 c27 -13 84 -31 125 -41 41 -9 68 -18 60 -20
-49 -10 -331 -39 -334 -34 -2 3 -7 52 -11 109 l-7 104 58 -48 c32 -26 81 -57
109 -70z m965 36 c0 -5 -6 -10 -12 -10 -7 0 -24 -3 -38 -6 l-25 -5 25 15 c29
18 50 20 50 6z m-111 -261 c-36 -51 -147 -136 -233 -178 -160 -79 -367 -119
-546 -106 -112 8 -192 23 -202 39 -4 6 -8 46 -8 89 0 73 1 77 23 78 12 0 229
24 482 53 253 30 470 54 483 55 l23 1 -22 -31z"/>
<path d="M2945 1855 c-105 -25 -268 -73 -322 -96 -24 -10 -30 -18 -24 -28 7
-12 34 -7 153 28 78 22 193 49 253 59 95 16 110 21 110 38 0 28 -50 28 -170
-1z"/>
<path d="M2295 1603 c-100 -66 -227 -175 -287 -247 -66 -79 -121 -164 -113
-176 12 -19 33 -10 45 21 55 132 201 284 370 384 80 47 76 43 64 55 -6 6 -34
-7 -79 -37z"/>
<path d="M3716 3168 c-19 -27 -14 -34 29 -42 65 -12 209 -93 276 -155 63 -57
65 -58 92 -45 15 8 27 21 27 28 0 22 -124 130 -190 165 -69 37 -163 71 -196
71 -13 0 -30 -10 -38 -22z"/>
<path d="M4194 2685 c-17 -11 -22 -29 -27 -97 -9 -120 -43 -216 -111 -317 -20
-30 -34 -57 -30 -60 11 -11 94 93 133 169 43 82 66 160 77 258 7 67 -1 77 -42
47z"/>
<path d="M2289 364 c-24 -25 -24 -26 -4 -41 43 -33 566 -273 595 -273 15 0 44
50 34 59 -5 4 -61 29 -124 56 -87 36 -430 198 -471 222 -3 2 -16 -8 -30 -23z"/>
</g>
</svg>
